<?xml version="1.0" standalone="no"?>
<!DOCTYPE svg PUBLIC "-//W3C//DTD SVG 20010904//EN"
 "http://www.w3.org/TR/2001/REC-SVG-20010904/DTD/svg10.dtd">
<svg version="1.0" xmlns="http://www.w3.org/2000/svg"
 width="512.000000pt" height="512.000000pt" viewBox="0 0 512.000000 512.000000"
 preserveAspectRatio="xMidYMid meet">

<g transform="translate(0.000000,512.000000) scale(0.100000,-0.100000)"
fill="#fff" stroke="none">
<path d="M2355 4627 l-60 -172 -85 -7 c-47 -4 -130 -11 -185 -15 l-100 -8 146
-112 147 -112 -44 -173 c-24 -95 -44 -176 -44 -181 0 -4 39 20 88 54 48 34
117 81 153 106 l66 44 151 -95 c83 -53 153 -96 156 -96 2 0 -7 37 -21 83 -14
45 -38 124 -53 174 l-28 93 141 117 141 118 -176 5 c-98 3 -181 9 -186 15 -6
6 -38 80 -72 165 -35 85 -66 158 -69 162 -3 4 -33 -71 -66 -165z"/>
<path d="M1415 4676 c-293 -46 -569 -213 -748 -452 -443 -590 -244 -1425 418
-1757 133 -66 367 -124 469 -115 l39 3 -59 40 c-32 22 -107 87 -165 145 -203
201 -328 438 -386 726 -24 122 -24 385 0 507 73 366 286 693 587 899 l25 17
-50 -1 c-27 0 -86 -6 -130 -12z"/>
<path d="M2405 2710 l-1660 -1660 153 -152 152 -153 1662 1662 1663 1663 -150
150 c-82 82 -152 150 -155 150 -3 0 -752 -747 -1665 -1660z"/>
<path d="M1740 3692 c-23 -70 -46 -130 -49 -134 -4 -4 -67 -12 -140 -18 -74
-5 -136 -11 -137 -13 -2 -2 46 -41 106 -87 61 -45 110 -88 110 -94 0 -6 -15
-68 -34 -138 -19 -71 -32 -128 -29 -128 2 0 56 36 119 80 l114 79 117 -74 c65
-41 119 -72 120 -67 2 4 -15 65 -37 137 -22 71 -36 132 -32 135 5 3 55 43 111
90 l104 85 -143 5 -143 5 -54 129 c-29 72 -55 131 -56 133 -2 1 -23 -55 -47
-125z"/>
<path d="M4107 2903 c35 -87 90 -220 121 -296 31 -75 59 -134 63 -130 33 34
457 528 455 530 -2 3 -671 53 -697 53 -4 0 22 -71 58 -157z"/>
<path d="M3006 2112 l-818 -819 46 -33 c78 -53 248 -129 353 -157 90 -25 113
-27 293 -27 178 0 203 2 291 26 302 82 561 275 715 533 105 176 154 346 161
560 6 169 -8 275 -53 410 -28 85 -111 254 -147 298 l-22 28 -819 -819z"/>
<path d="M4163 1708 c-67 -161 -121 -294 -120 -295 3 -2 690 46 699 50 5 1
-403 481 -451 530 -4 4 -62 -124 -128 -285z"/>
<path d="M2060 1057 c-1 -67 44 -663 51 -671 6 -7 507 416 523 443 3 5 -79 44
-182 86 -103 43 -233 97 -289 121 -100 41 -103 42 -103 21z"/>
<path d="M3430 966 c-146 -61 -276 -116 -289 -122 -22 -9 -8 -24 243 -243 147
-128 269 -231 270 -229 6 6 51 708 46 707 -3 -1 -124 -51 -270 -113z"/>
</g>
</svg>
